<?xml version="1.0" encoding="utf-8"?>
<!-- Generator: Adobe Illustrator 13.0.0, SVG Export Plug-In  -->
<!DOCTYPE svg PUBLIC "-//W3C//DTD SVG 1.1//EN" "http://www.w3.org/Graphics/SVG/1.1/DTD/svg11.dtd" [
	<!ENTITY ns_flows "http://ns.adobe.com/Flows/1.0/">
]>
<svg version="1.1"
	 xmlns="http://www.w3.org/2000/svg" xmlns:xlink="http://www.w3.org/1999/xlink" xmlns:a="http://ns.adobe.com/AdobeSVGViewerExtensions/3.0/"
	 x="0px" y="0px" width="497px" height="49px" viewBox="-0.866 -0.881 497 49" enable-background="new -0.866 -0.881 497 49"
	 xml:space="preserve">
<defs>
</defs>
<rect x="182.948" y="10.833" width="0.946" height="20.424"/>
<rect x="182.949" y="10.833" fill="none" stroke="#000000" stroke-width="0" stroke-linejoin="round" stroke-miterlimit="10" width="0.946" height="20.424"/>
<rect x="490.633" y="10.833" width="0.946" height="20.424"/>
<rect x="490.633" y="10.833" fill="none" stroke="#000000" stroke-width="0" stroke-linejoin="round" stroke-miterlimit="10" width="0.946" height="20.424"/>
<rect x="493.074" y="10.833" width="2.988" height="20.424"/>
<rect x="493.074" y="10.833" fill="none" stroke="#000000" stroke-width="0" stroke-linejoin="round" stroke-miterlimit="10" width="2.988" height="20.424"/>
<line fill="none" stroke="#000000" stroke-width="0.4981" stroke-linecap="round" stroke-linejoin="round" stroke-miterlimit="10" x1="0.249" y1="31.011" x2="495.813" y2="31.011"/>
<line fill="none" stroke="#000000" stroke-width="0.4981" stroke-linecap="round" stroke-linejoin="round" stroke-miterlimit="10" x1="0.249" y1="26.031" x2="495.813" y2="26.031"/>
<line fill="none" stroke="#000000" stroke-width="0.4981" stroke-linecap="round" stroke-linejoin="round" stroke-miterlimit="10" x1="0.249" y1="21.044" x2="495.813" y2="21.044"/>
<line fill="none" stroke="#000000" stroke-width="0.4981" stroke-linecap="round" stroke-linejoin="round" stroke-miterlimit="10" x1="0.249" y1="16.064" x2="495.813" y2="16.064"/>
<line fill="none" stroke="#000000" stroke-width="0.4981" stroke-linecap="round" stroke-linejoin="round" stroke-miterlimit="10" x1="0.249" y1="11.084" x2="495.813" y2="11.084"/>
<rect x="461.688" y="10.833" width="0.947" height="20.424"/>
<rect x="461.689" y="10.833" fill="none" stroke="#000000" stroke-width="0" stroke-linejoin="round" stroke-miterlimit="10" width="0.946" height="20.424"/>
<rect x="398.166" y="10.833" width="0.947" height="20.424"/>
<rect x="398.166" y="10.833" fill="none" stroke="#000000" stroke-width="0" stroke-linejoin="round" stroke-miterlimit="10" width="0.946" height="20.424"/>
<rect x="125.708" y="10.833" width="0.946" height="20.424"/>
<rect x="125.708" y="10.833" fill="none" stroke="#000000" stroke-width="0" stroke-linejoin="round" stroke-miterlimit="10" width="0.946" height="20.424"/>
<rect x="336.951" y="10.833" width="0.946" height="20.424"/>
<rect x="336.951" y="10.833" fill="none" stroke="#000000" stroke-width="0" stroke-linejoin="round" stroke-miterlimit="10" width="0.946" height="20.424"/>
<rect x="279.385" y="10.833" width="0.946" height="20.424"/>
<rect x="279.385" y="10.833" fill="none" stroke="#000000" stroke-width="0" stroke-linejoin="round" stroke-miterlimit="10" width="0.946" height="20.424"/>
<rect x="69.548" y="10.833" width="0.946" height="20.424"/>
<rect x="69.548" y="10.833" fill="none" stroke="#000000" stroke-width="0" stroke-linejoin="round" stroke-miterlimit="10" width="0.946" height="20.424"/>
<rect x="226.275" y="6.301" width="0.249" height="11.119"/>
<rect x="226.275" y="6.301" fill="none" stroke="#000000" stroke-width="0.3985" stroke-linejoin="round" stroke-miterlimit="10" width="0.249" height="11.119"/>
<rect x="364.092" y="14.712" width="0.249" height="16.101"/>
<rect x="364.093" y="14.712" fill="none" stroke="#000000" stroke-width="0.3985" stroke-linejoin="round" stroke-miterlimit="10" width="0.248" height="16.101"/>
<path d="M367.212,8.172h2.67l0.08,0.06c0.119,0.1,0.199,0.199,0.199,0.359c0,0.139-0.08,0.239-0.199,0.338l-0.08,0.04h-2.71h-2.71
	l-0.08-0.04c-0.159-0.12-0.239-0.299-0.18-0.478c0.04-0.08,0.18-0.239,0.26-0.259C364.501,8.192,365.537,8.172,367.212,8.172z"/>
<path d="M225.149,15.863c0.797,0.179,1.335,0.618,1.515,1.275c0.06,0.219,0.06,0.678,0.02,0.937
	c-0.179,0.817-0.737,1.614-1.534,2.212c-0.678,0.498-1.455,0.837-2.212,0.977c-0.299,0.04-0.897,0.04-1.136,0
	c-0.837-0.18-1.395-0.618-1.574-1.315c-0.06-0.199-0.06-0.658-0.02-0.917c0.18-0.817,0.737-1.614,1.555-2.212
	c0.717-0.558,1.554-0.896,2.371-0.996C224.372,15.804,224.93,15.824,225.149,15.863z"/>
<line fill="none" stroke="#000000" stroke-width="0.4981" stroke-linecap="round" stroke-linejoin="round" stroke-miterlimit="10" x1="363.894" y1="45.867" x2="394.132" y2="42.549"/>
<line fill="none" stroke="#000000" stroke-width="0.4981" stroke-linecap="round" stroke-linejoin="round" stroke-miterlimit="10" x1="363.894" y1="39.23" x2="394.132" y2="42.549"/>
<path d="M456.462,23.336c0.797,0.179,1.335,0.618,1.515,1.275c0.06,0.219,0.06,0.677,0.02,0.937
	c-0.179,0.817-0.737,1.614-1.534,2.212c-0.678,0.499-1.455,0.837-2.212,0.977c-0.299,0.04-0.897,0.04-1.136,0
	c-0.837-0.179-1.396-0.618-1.574-1.315c-0.061-0.199-0.061-0.657-0.021-0.917c0.18-0.817,0.737-1.614,1.555-2.212
	c0.717-0.558,1.554-0.897,2.371-0.997C455.685,23.276,456.243,23.296,456.462,23.336z"/>
<rect x="441.586" y="10.088" fill="none" stroke="#000000" stroke-width="0.3985" stroke-linejoin="round" stroke-miterlimit="10" width="16.25" height="1.993"/>
<rect x="441.586" y="10.088" width="16.25" height="1.993"/>
<rect x="451.335" y="14.12" fill="none" stroke="#000000" stroke-width="0.3985" stroke-linejoin="round" stroke-miterlimit="10" width="6.501" height="1.993"/>
<rect x="451.335" y="14.12" width="6.501" height="1.993"/>
<path d="M223.485,23.117h2.67l0.08,0.06c0.12,0.1,0.199,0.199,0.199,0.359c0,0.14-0.08,0.239-0.199,0.339l-0.08,0.04h-2.71h-2.71
	l-0.08-0.04c-0.159-0.12-0.239-0.299-0.179-0.479c0.04-0.08,0.179-0.239,0.259-0.259C220.775,23.137,221.812,23.117,223.485,23.117z
	"/>
<path d="M473.175,15.824c0.318,0.02,0.398,0.02,0.578,0.06c0.278,0.08,0.458,0.18,0.617,0.339c0.16,0.16,0.26,0.339,0.339,0.558
	c0.06,0.239,0.06,0.697,0,1.016c-0.199,0.917-0.558,1.674-1.036,2.172c-0.638,0.638-1.813,1.096-3.108,1.235
	c-1.315,0.16-1.913,0.06-2.312-0.319c-0.16-0.159-0.26-0.339-0.339-0.558c-0.061-0.239-0.061-0.697,0-1.016
	c0.199-0.917,0.558-1.674,1.036-2.152c0.259-0.259,0.498-0.438,0.956-0.658c0.718-0.358,1.495-0.558,2.571-0.658
	C472.656,15.843,472.936,15.824,473.175,15.824z M472.378,16.76c-0.419,0.219-1.076,0.618-2.093,1.295
	c-1.057,0.677-1.534,1.096-1.694,1.395c-0.119,0.259-0.139,0.518-0.02,0.777c0.199,0.379,0.638,0.538,1.116,0.379
	c0.478-0.179,1.255-0.618,2.65-1.555c1.056-0.677,1.534-1.096,1.693-1.395c0.12-0.259,0.14-0.519,0.021-0.777
	c-0.12-0.219-0.279-0.339-0.538-0.418C473.234,16.401,472.976,16.461,472.378,16.76z"/>
<rect x="457.587" y="11.281" width="0.249" height="13.61"/>
<rect x="457.587" y="11.281" fill="none" stroke="#000000" stroke-width="0.3985" stroke-linejoin="round" stroke-miterlimit="10" width="0.249" height="13.61"/>
<rect x="343.313" y="10.093" width="0.249" height="15.734"/>
<rect x="343.313" y="10.093" fill="none" stroke="#000000" stroke-width="0.3985" stroke-linejoin="round" stroke-miterlimit="10" width="0.249" height="15.734"/>
<path d="M348.437,5.861c0.318,0.02,0.398,0.02,0.578,0.06c0.278,0.08,0.458,0.179,0.617,0.338c0.16,0.16,0.26,0.339,0.339,0.558
	c0.06,0.239,0.06,0.698,0,1.017c-0.199,0.917-0.558,1.674-1.036,2.172c-0.638,0.638-1.813,1.096-3.108,1.236
	c-1.315,0.159-1.913,0.06-2.312-0.319c-0.16-0.159-0.26-0.338-0.339-0.558c-0.061-0.239-0.061-0.698,0-1.017
	c0.199-0.917,0.558-1.674,1.036-2.152c0.259-0.259,0.498-0.438,0.956-0.658c0.718-0.359,1.495-0.558,2.571-0.658
	C347.918,5.881,348.197,5.861,348.437,5.861z M347.64,6.797c-0.419,0.219-1.076,0.618-2.093,1.295
	c-1.057,0.678-1.534,1.096-1.694,1.395c-0.119,0.259-0.139,0.518-0.02,0.777c0.199,0.378,0.638,0.538,1.116,0.378
	c0.479-0.179,1.255-0.618,2.65-1.554c1.056-0.678,1.534-1.096,1.693-1.395c0.12-0.259,0.14-0.518,0.021-0.777
	c-0.12-0.219-0.279-0.338-0.538-0.418C348.496,6.439,348.237,6.499,347.64,6.797z"/>
<polygon fill="none" stroke="#000000" stroke-width="0.3985" stroke-linejoin="round" stroke-miterlimit="10" points="
	308.662,34.119 308.662,36.111 323.536,32.883 323.536,30.891 "/>
<polyline points="308.662,34.119 308.662,36.111 323.536,32.883 323.536,30.891 "/>
<path d="M408.53,0.028c1.216,0.199,2.271,0.737,3.229,1.674c1.096,1.116,1.933,2.65,2.411,4.444c0.14,0.518,0.239,1.096,0.239,1.176
	c-0.04,0.199-0.299,0.319-0.519,0.219c-0.159-0.06-0.199-0.14-0.259-0.479c-0.398-1.773-1.335-3.188-2.75-4.125
	c-0.299-0.199-0.837-0.478-1.136-0.578c-1.256-0.479-2.65-0.479-3.906,0c-0.299,0.1-0.837,0.378-1.136,0.578
	c-1.415,0.937-2.352,2.352-2.75,4.125c-0.061,0.339-0.1,0.418-0.26,0.479c-0.159,0.08-0.358,0.02-0.458-0.08
	c-0.08-0.1-0.08-0.18,0-0.578c0.339-1.574,0.977-3.089,1.794-4.225c1.176-1.614,2.61-2.491,4.344-2.65
	C407.554-0.012,408.331,0.008,408.53,0.028z M409.088,5.986c0.159,0.718-0.278,1.415-0.977,1.575
	c-0.737,0.179-1.475-0.279-1.614-1.017c-0.159-0.717,0.279-1.395,0.977-1.574C408.211,4.791,408.948,5.249,409.088,5.986z"/>
<rect x="132.07" y="15.079" width="0.25" height="15.734"/>
<rect x="132.07" y="15.079" fill="none" stroke="#000000" stroke-width="0.3985" stroke-linejoin="round" stroke-miterlimit="10" width="0.25" height="15.734"/>
<path d="M79.912,2.02c1.215,0.199,2.271,0.737,3.228,1.674c1.096,1.116,1.933,2.65,2.412,4.444c0.139,0.518,0.239,1.096,0.239,1.176
	c-0.04,0.199-0.299,0.318-0.518,0.219c-0.159-0.06-0.199-0.139-0.259-0.478c-0.399-1.774-1.335-3.188-2.75-4.125
	c-0.299-0.2-0.837-0.479-1.136-0.578c-1.255-0.478-2.65-0.478-3.906,0c-0.299,0.1-0.837,0.378-1.136,0.578
	c-1.415,0.937-2.352,2.351-2.75,4.125c-0.06,0.339-0.1,0.418-0.259,0.478c-0.16,0.08-0.359,0.02-0.458-0.08
	c-0.08-0.1-0.08-0.179,0-0.578c0.339-1.575,0.977-3.089,1.793-4.225C75.587,3.037,77.022,2.16,78.755,2
	C78.935,1.98,79.712,2,79.912,2.02z M80.469,7.979c0.16,0.717-0.279,1.415-0.976,1.574c-0.738,0.179-1.475-0.279-1.614-1.016
	c-0.16-0.718,0.279-1.395,0.977-1.574C79.593,6.783,80.33,7.241,80.469,7.979z"/>
<rect x="189.311" y="14.712" width="0.249" height="16.101"/>
<rect x="189.311" y="14.712" fill="none" stroke="#000000" stroke-width="0.3985" stroke-linejoin="round" stroke-miterlimit="10" width="0.25" height="16.101"/>
<rect x="75.911" y="20.059" width="0.249" height="15.734"/>
<rect x="75.911" y="20.059" fill="none" stroke="#000000" stroke-width="0.3985" stroke-linejoin="round" stroke-miterlimit="10" width="0.249" height="15.734"/>
<polygon fill="none" stroke="#000000" stroke-width="0.3985" stroke-linejoin="round" stroke-miterlimit="10" points="160.567,9.23 
	160.567,11.223 175.442,7.011 175.442,5.019 "/>
<polyline points="160.567,9.23 160.567,11.223 175.442,7.011 175.442,5.019 "/>
<path d="M86.372,17.478c0.359,0.14,0.558,0.339,0.698,0.697c0.04,0.12,0.04,0.16,0.04,0.359c0,0.219,0,0.259-0.04,0.378
	c-0.14,0.359-0.359,0.578-0.718,0.698c-0.179,0.06-0.518,0.06-0.697,0c-0.359-0.12-0.578-0.339-0.717-0.698
	c-0.04-0.1-0.04-0.159-0.04-0.358s0-0.259,0.04-0.359c0.04-0.159,0.159-0.339,0.239-0.438c0.14-0.139,0.399-0.279,0.618-0.319
	C85.933,17.398,86.232,17.438,86.372,17.478z"/>
<path d="M194.094,10.883c0.797,0.179,1.335,0.618,1.515,1.275c0.06,0.219,0.06,0.677,0.02,0.937
	c-0.18,0.817-0.737,1.614-1.535,2.212c-0.677,0.498-1.455,0.837-2.212,0.977c-0.299,0.04-0.897,0.04-1.136,0
	c-0.837-0.179-1.395-0.618-1.575-1.315c-0.06-0.199-0.06-0.658-0.02-0.917c0.179-0.817,0.737-1.614,1.554-2.212
	c0.717-0.558,1.554-0.897,2.372-0.997C193.317,10.823,193.875,10.843,194.094,10.883z M328.07,10.883
	c0.798,0.179,1.336,0.618,1.515,1.275c0.06,0.219,0.06,0.677,0.021,0.937c-0.18,0.817-0.737,1.614-1.535,2.212
	c-0.678,0.498-1.454,0.837-2.212,0.977c-0.299,0.04-0.896,0.04-1.136,0c-0.837-0.179-1.395-0.618-1.574-1.315
	c-0.06-0.199-0.06-0.658-0.02-0.917c0.179-0.817,0.737-1.614,1.554-2.212c0.718-0.558,1.555-0.897,2.372-0.997
	C327.293,10.823,327.852,10.843,328.07,10.883z"/>
<rect x="410.806" y="8.791" width="0.249" height="15.734"/>
<rect x="410.806" y="8.791" fill="none" stroke="#000000" stroke-width="0.3985" stroke-linejoin="round" stroke-miterlimit="10" width="0.249" height="15.734"/>
<path d="M414.991,22.459c0.358,0.14,0.559,0.339,0.697,0.698c0.04,0.119,0.04,0.159,0.04,0.358c0,0.219,0,0.259-0.04,0.379
	c-0.139,0.358-0.358,0.578-0.717,0.697c-0.18,0.06-0.519,0.06-0.697,0c-0.359-0.12-0.578-0.339-0.718-0.697
	c-0.04-0.1-0.04-0.16-0.04-0.359s0-0.259,0.04-0.359c0.04-0.159,0.159-0.338,0.239-0.438c0.14-0.139,0.398-0.279,0.617-0.318
	C414.553,22.379,414.852,22.419,414.991,22.459z"/>
<rect x="211.65" y="10.334" width="0.249" height="14.556"/>
<rect x="211.65" y="10.334" fill="none" stroke="#000000" stroke-width="0.3985" stroke-linejoin="round" stroke-miterlimit="10" width="0.249" height="14.556"/>
<path d="M208.861,33.08h2.67l0.08,0.06c0.12,0.1,0.199,0.2,0.199,0.359c0,0.14-0.08,0.239-0.199,0.339l-0.08,0.04h-2.71h-2.71
	l-0.08-0.04c-0.159-0.12-0.239-0.299-0.179-0.479c0.04-0.08,0.179-0.239,0.259-0.259C206.151,33.1,207.188,33.08,208.861,33.08z"/>
<rect x="468.052" y="20.059" width="0.249" height="15.734"/>
<rect x="468.052" y="20.059" fill="none" stroke="#000000" stroke-width="0.3985" stroke-linejoin="round" stroke-miterlimit="10" width="0.249" height="15.734"/>
<path d="M478.514,17.478c0.358,0.14,0.558,0.339,0.697,0.697c0.04,0.12,0.04,0.16,0.04,0.359c0,0.219,0,0.259-0.04,0.378
	c-0.14,0.359-0.358,0.578-0.718,0.698c-0.179,0.06-0.518,0.06-0.697,0c-0.358-0.12-0.578-0.339-0.717-0.698
	c-0.04-0.1-0.04-0.159-0.04-0.358s0-0.259,0.04-0.359c0.039-0.159,0.159-0.339,0.238-0.438c0.14-0.139,0.398-0.279,0.618-0.319
	C478.075,17.398,478.374,17.438,478.514,17.478z"/>
<path d="M472.053,2.02c1.216,0.199,2.271,0.737,3.229,1.674c1.096,1.116,1.933,2.65,2.411,4.444c0.14,0.518,0.239,1.096,0.239,1.176
	c-0.04,0.199-0.299,0.319-0.519,0.219c-0.159-0.06-0.199-0.14-0.259-0.479c-0.398-1.773-1.335-3.188-2.75-4.125
	c-0.299-0.199-0.837-0.478-1.136-0.578c-1.256-0.479-2.65-0.479-3.906,0c-0.299,0.1-0.837,0.378-1.136,0.578
	c-1.415,0.937-2.352,2.352-2.75,4.125c-0.06,0.339-0.1,0.418-0.259,0.479c-0.16,0.08-0.359,0.02-0.459-0.08
	c-0.079-0.1-0.079-0.18,0-0.578c0.339-1.574,0.977-3.089,1.794-4.225c1.176-1.614,2.61-2.491,4.344-2.65
	C471.076,1.98,471.854,2,472.053,2.02z M472.61,7.979c0.16,0.718-0.278,1.415-0.977,1.575c-0.737,0.179-1.475-0.279-1.613-1.017
	c-0.16-0.717,0.278-1.395,0.976-1.574C471.733,6.783,472.472,7.241,472.61,7.979z"/>
<path d="M159.442,23.336c0.797,0.179,1.335,0.618,1.514,1.275c0.06,0.219,0.06,0.678,0.02,0.937
	c-0.179,0.817-0.737,1.614-1.534,2.212c-0.678,0.498-1.455,0.837-2.212,0.976c-0.299,0.04-0.896,0.04-1.136,0
	c-0.837-0.179-1.395-0.618-1.574-1.315c-0.06-0.199-0.06-0.658-0.02-0.917c0.179-0.817,0.737-1.614,1.554-2.212
	c0.718-0.558,1.555-0.896,2.372-0.996C158.665,23.276,159.223,23.296,159.442,23.336z"/>
<path d="M137.191,10.843c0.319,0.02,0.399,0.02,0.578,0.06c0.279,0.08,0.458,0.179,0.618,0.338c0.16,0.16,0.259,0.339,0.339,0.558
	c0.06,0.239,0.06,0.697,0,1.017c-0.199,0.917-0.558,1.674-1.036,2.172c-0.638,0.638-1.813,1.096-3.109,1.236
	c-1.315,0.159-1.913,0.06-2.312-0.319c-0.16-0.16-0.259-0.339-0.339-0.558c-0.06-0.239-0.06-0.698,0-1.017
	c0.199-0.917,0.558-1.674,1.036-2.152c0.259-0.259,0.499-0.438,0.957-0.658c0.717-0.359,1.495-0.558,2.571-0.658
	C136.673,10.863,136.953,10.843,137.191,10.843z M136.395,11.779c-0.418,0.219-1.076,0.618-2.092,1.295
	c-1.056,0.678-1.535,1.096-1.694,1.395c-0.12,0.259-0.14,0.518-0.02,0.777c0.199,0.378,0.638,0.538,1.116,0.378
	c0.479-0.179,1.255-0.618,2.65-1.554c1.056-0.678,1.535-1.096,1.694-1.395c0.12-0.259,0.14-0.518,0.02-0.777
	c-0.12-0.219-0.279-0.339-0.538-0.418C137.251,11.421,136.992,11.48,136.395,11.779z"/>
<rect x="104.843" y="10.334" width="0.249" height="14.556"/>
<rect x="104.843" y="10.334" fill="none" stroke="#000000" stroke-width="0.3985" stroke-linejoin="round" stroke-miterlimit="10" width="0.249" height="14.556"/>
<path d="M109.028,22.459c0.358,0.14,0.558,0.339,0.697,0.698c0.04,0.119,0.04,0.159,0.04,0.358c0,0.219,0,0.259-0.04,0.379
	c-0.139,0.358-0.358,0.578-0.717,0.697c-0.179,0.06-0.518,0.06-0.697,0c-0.359-0.12-0.578-0.339-0.718-0.697
	c-0.04-0.1-0.04-0.16-0.04-0.359s0-0.259,0.04-0.359c0.04-0.159,0.16-0.338,0.239-0.438c0.14-0.139,0.398-0.279,0.618-0.318
	C108.589,22.379,108.888,22.419,109.028,22.459z"/>
<path d="M103.718,23.335c0.797,0.18,1.335,0.618,1.514,1.275c0.06,0.219,0.06,0.678,0.02,0.937
	c-0.179,0.817-0.737,1.614-1.534,2.212c-0.678,0.498-1.455,0.837-2.212,0.976c-0.299,0.04-0.897,0.04-1.136,0
	c-0.837-0.179-1.395-0.618-1.574-1.315c-0.06-0.199-0.06-0.658-0.02-0.917c0.18-0.817,0.737-1.614,1.555-2.212
	c0.717-0.558,1.554-0.896,2.371-0.996C102.94,23.276,103.499,23.296,103.718,23.335z"/>
<line fill="none" stroke="#000000" stroke-width="0.4981" stroke-linecap="round" stroke-linejoin="round" stroke-miterlimit="10" x1="467.853" y1="45.867" x2="488.259" y2="42.549"/>
<line fill="none" stroke="#000000" stroke-width="0.4981" stroke-linecap="round" stroke-linejoin="round" stroke-miterlimit="10" x1="467.853" y1="39.23" x2="488.259" y2="42.549"/>
<polygon fill="none" stroke="#000000" stroke-width="0.3985" stroke-linejoin="round" stroke-miterlimit="10" points="211.65,9.23 
	211.65,11.223 226.524,7.011 226.524,5.019 "/>
<polyline points="211.65,9.23 211.65,11.223 226.524,7.011 226.524,5.019 "/>
<polygon fill="none" stroke="#000000" stroke-width="0.3985" stroke-linejoin="round" stroke-miterlimit="10" points="
	104.843,9.219 104.843,11.21 121.854,7.023 121.854,5.031 "/>
<polyline points="104.843,9.219 104.843,11.21 121.854,7.023 121.854,5.031 "/>
<polygon fill="none" stroke="#000000" stroke-width="0.3985" stroke-linejoin="round" stroke-miterlimit="10" points="
	115.354,10.725 115.354,12.717 121.855,11.055 121.855,9.062 "/>
<polyline points="115.354,10.725 115.354,12.717 121.855,11.055 121.855,9.062 "/>
<path d="M210.525,23.336c0.797,0.179,1.335,0.618,1.515,1.275c0.06,0.219,0.06,0.677,0.02,0.937
	c-0.179,0.817-0.737,1.614-1.534,2.212c-0.678,0.499-1.455,0.837-2.212,0.977c-0.299,0.04-0.897,0.04-1.136,0
	c-0.837-0.179-1.395-0.618-1.574-1.315c-0.06-0.199-0.06-0.657-0.02-0.917c0.18-0.817,0.737-1.614,1.555-2.212
	c0.717-0.558,1.554-0.897,2.371-0.997C209.748,23.276,210.306,23.296,210.525,23.336z"/>
<rect x="121.606" y="6.301" width="0.249" height="11.119"/>
<rect x="121.606" y="6.301" fill="none" stroke="#000000" stroke-width="0.3985" stroke-linejoin="round" stroke-miterlimit="10" width="0.249" height="11.119"/>
<path d="M120.48,15.864c0.797,0.179,1.335,0.618,1.515,1.275c0.06,0.219,0.06,0.678,0.02,0.937
	c-0.179,0.817-0.737,1.614-1.535,2.212c-0.677,0.498-1.455,0.837-2.212,0.976c-0.299,0.04-0.896,0.04-1.136,0
	c-0.837-0.179-1.395-0.618-1.574-1.315c-0.06-0.199-0.06-0.658-0.02-0.917c0.179-0.817,0.737-1.614,1.554-2.212
	c0.717-0.558,1.555-0.897,2.372-0.997C119.703,15.804,120.261,15.824,120.48,15.864z"/>
<path d="M445.771,22.459c0.358,0.14,0.558,0.339,0.697,0.697c0.04,0.12,0.04,0.16,0.04,0.359c0,0.219,0,0.259-0.04,0.378
	c-0.14,0.359-0.358,0.578-0.717,0.698c-0.18,0.06-0.519,0.06-0.698,0c-0.358-0.12-0.577-0.339-0.717-0.698
	c-0.04-0.1-0.04-0.159-0.04-0.358s0-0.259,0.04-0.359c0.04-0.159,0.159-0.339,0.239-0.438c0.139-0.139,0.398-0.279,0.617-0.319
	C445.333,22.38,445.632,22.419,445.771,22.459z"/>
<path d="M440.461,23.336c0.797,0.179,1.335,0.618,1.515,1.275c0.06,0.219,0.06,0.678,0.02,0.937
	c-0.179,0.817-0.737,1.614-1.534,2.212c-0.678,0.499-1.455,0.837-2.212,0.977c-0.299,0.04-0.896,0.04-1.136,0
	c-0.837-0.179-1.396-0.618-1.574-1.315c-0.061-0.199-0.061-0.658-0.021-0.917c0.18-0.817,0.737-1.614,1.555-2.212
	c0.717-0.558,1.555-0.896,2.371-0.997C439.684,23.276,440.241,23.296,440.461,23.336z"/>
<rect x="257.004" y="10.334" width="0.249" height="14.556"/>
<rect x="257.004" y="10.334" fill="none" stroke="#000000" stroke-width="0.3985" stroke-linejoin="round" stroke-miterlimit="10" width="0.249" height="14.556"/>
<path d="M429.401,8.013c0.438,0.159,0.837,1.076,0.837,1.893c0,1.017-0.478,2.212-1.494,3.727c-0.14,0.219-0.299,0.418-0.319,0.438
	c-0.079,0.06-0.238,0.08-0.318,0.02c-0.1-0.06-0.159-0.12-0.14-0.259c0-0.1,0-0.12,0.159-0.358c0.319-0.479,0.618-1.156,0.737-1.674
	c0.26-0.996,0.14-1.873-0.338-2.63c-0.12-0.199-0.16-0.339-0.16-0.518c0.04-0.319,0.279-0.598,0.578-0.678
	C429.063,7.954,429.282,7.973,429.401,8.013z"/>
<path d="M254.214,33.08h2.671l0.08,0.06c0.119,0.1,0.199,0.199,0.199,0.359c0,0.14-0.08,0.239-0.199,0.339l-0.08,0.04h-2.71h-2.711
	l-0.079-0.04c-0.159-0.12-0.239-0.299-0.18-0.479c0.04-0.08,0.18-0.239,0.259-0.259C251.504,33.1,252.54,33.08,254.214,33.08z"/>
<path d="M311.781,13.154h2.671l0.079,0.06c0.12,0.1,0.2,0.199,0.2,0.358c0,0.14-0.08,0.239-0.2,0.339l-0.079,0.04h-2.71h-2.711
	l-0.079-0.04c-0.16-0.12-0.239-0.299-0.18-0.479c0.04-0.08,0.18-0.239,0.259-0.259C309.071,13.174,310.107,13.154,311.781,13.154z"
	/>
<line fill="none" stroke="#000000" stroke-width="0.4981" stroke-linecap="round" stroke-linejoin="round" stroke-miterlimit="10" x1="308.463" y1="42.801" x2="332.916" y2="46.119"/>
<line fill="none" stroke="#000000" stroke-width="0.4981" stroke-linecap="round" stroke-linejoin="round" stroke-miterlimit="10" x1="308.463" y1="42.801" x2="332.916" y2="39.477"/>
<rect x="308.662" y="19.69" width="0.249" height="15.154"/>
<rect x="308.662" y="19.69" fill="none" stroke="#000000" stroke-width="0.3985" stroke-linejoin="round" stroke-miterlimit="10" width="0.249" height="15.154"/>
<path d="M270.504,15.864c0.797,0.179,1.335,0.618,1.514,1.275c0.061,0.219,0.061,0.678,0.021,0.937
	c-0.18,0.817-0.737,1.614-1.534,2.212c-0.678,0.498-1.455,0.837-2.213,0.976c-0.299,0.04-0.896,0.04-1.136,0
	c-0.837-0.179-1.395-0.618-1.574-1.315c-0.06-0.199-0.06-0.658-0.02-0.917c0.179-0.817,0.737-1.614,1.554-2.212
	c0.718-0.558,1.555-0.897,2.372-0.997C269.727,15.804,270.284,15.824,270.504,15.864z"/>
<path d="M239.448,10.883c0.797,0.179,1.335,0.618,1.515,1.275c0.06,0.219,0.06,0.677,0.02,0.937
	c-0.179,0.817-0.737,1.614-1.534,2.212c-0.678,0.498-1.455,0.837-2.212,0.977c-0.299,0.04-0.896,0.04-1.136,0
	c-0.837-0.179-1.396-0.618-1.574-1.315c-0.061-0.199-0.061-0.658-0.021-0.917c0.18-0.817,0.737-1.614,1.555-2.212
	c0.718-0.558,1.555-0.897,2.371-0.997C238.671,10.823,239.229,10.843,239.448,10.883z"/>
<rect x="160.567" y="10.334" width="0.249" height="14.556"/>
<rect x="160.567" y="10.334" fill="none" stroke="#000000" stroke-width="0.3985" stroke-linejoin="round" stroke-miterlimit="10" width="0.25" height="14.556"/>
<path d="M30.268,15.824c1.475,0.16,2.67,1.216,3.049,2.71c0.14,0.538,0.1,0.917-0.139,1.315c-0.08,0.139-0.339,0.398-0.479,0.478
	c-0.378,0.219-0.837,0.239-1.275,0.04c-0.398-0.199-0.638-0.458-0.777-0.877c-0.06-0.179-0.06-0.199-0.06-0.458
	c0-0.279,0.02-0.398,0.1-0.638c0.14-0.338,0.398-0.618,0.697-0.757c0.239-0.119,0.458-0.159,0.698-0.159c0.1,0.02,0.179,0,0.179,0
	c0-0.02-0.1-0.12-0.239-0.259c-0.438-0.438-0.937-0.717-1.554-0.837c-0.259-0.06-0.678-0.08-0.957-0.04
	c-1.076,0.119-1.594,0.657-1.773,1.873c-0.08,0.558-0.08,0.797-0.08,2.83s0,2.272,0.08,2.83c0.179,1.196,0.697,1.753,1.733,1.873
	c0.957,0.1,1.754-0.179,2.451-0.857c0.479-0.498,0.837-1.136,1.056-1.933c0.1-0.299,0.1-0.319,0.18-0.338
	c0.179-0.1,0.398,0.04,0.378,0.239c-0.02,0.14-0.14,0.538-0.239,0.757c-0.538,1.415-1.574,2.372-2.81,2.611
	c-0.678,0.139-1.813,0.02-2.63-0.279c-1.674-0.618-2.65-1.973-2.91-4.025c-0.04-0.398-0.04-1.355,0-1.753
	c0.279-2.212,1.395-3.627,3.328-4.165c0.279-0.06,0.757-0.16,1.056-0.18C29.61,15.804,30.048,15.804,30.268,15.824z"/>
<path d="M10.801,1.396c1.355,1.455,2.571,4.145,2.85,6.317c0.16,1.196,0,2.511-0.458,3.767c-0.498,1.335-1.275,2.67-2.69,4.484
	l-0.339,0.458l0.1,0.279c0.458,1.415,0.917,2.89,1.156,3.747l0.08,0.339l0.339,0.02c0.737,0.04,1.355,0.199,1.993,0.519
	c1.335,0.657,2.332,1.933,2.71,3.427c0.418,1.614,0.08,3.268-0.937,4.524c-0.598,0.737-1.295,1.255-2.112,1.574l-0.2,0.08v1.136
	c-0.02,1.116-0.02,1.455-0.1,2.232c-0.08,1.176-0.398,2.132-0.957,2.97c-0.837,1.235-1.993,1.853-3.308,1.813
	c-0.738-0.04-1.475-0.259-2.093-0.638c-0.957-0.558-1.634-1.475-1.853-2.511c-0.18-0.777-0.1-1.375,0.219-1.873
	c0.418-0.658,1.215-1.037,1.993-1.017c0.817,0.04,1.475,0.598,1.714,1.435c0.199,0.658,0.1,1.275-0.279,1.773
	c-0.458,0.618-1.335,0.917-2.013,0.678l-0.08-0.04l0.1,0.12c0.12,0.179,0.418,0.478,0.598,0.598
	c0.558,0.418,1.176,0.618,1.874,0.618c0.618,0,1.116-0.159,1.614-0.538c0.438-0.319,0.797-0.777,1.096-1.395
	c0.479-0.977,0.618-1.913,0.618-4.145v-0.977c0-0.02-0.14,0-0.299,0.02c-1.973,0.279-3.806-0.18-5.321-1.315
	c-1.853-1.375-2.889-3.567-2.83-5.898c0.04-1.275,0.339-2.432,0.957-3.707s1.335-2.332,3.208-4.703l0.578-0.737l-0.1-0.358
	c-0.817-2.571-1.136-4.085-1.215-6.098c-0.02-0.538-0.02-1.355,0.02-1.694C7.652,4.684,8.529,2.89,9.964,1.475
	c0.139-0.14,0.279-0.279,0.319-0.299C10.442,1.077,10.562,1.136,10.801,1.396z M9.525,17.238c-0.04,0-1.216,1.535-1.634,2.132
	c-1.495,2.072-2.212,3.727-2.431,5.5c-0.04,0.379-0.06,0.977-0.02,1.235c0.1,0.937,0.518,1.774,1.255,2.531
	c0.458,0.438,0.937,0.797,1.535,1.096c1.056,0.538,2.112,0.737,3.348,0.658c0.378-0.02,0.777-0.08,0.797-0.1
	c0.04-0.04-0.06-1.215-0.179-2.092c-0.16-1.395-0.418-2.85-0.797-4.404c-0.12-0.558-0.199-0.837-0.199-0.837
	c-0.02-0.02-0.398,0.02-0.598,0.08c-1.017,0.219-1.754,0.857-1.993,1.714c-0.338,1.156,0.259,2.312,1.495,3.009
	c0.259,0.159,0.319,0.219,0.339,0.398c0,0.14-0.08,0.299-0.199,0.379c-0.08,0.06-0.1,0.06-0.219,0.06s-0.159,0-0.398-0.12
	c-0.498-0.239-0.857-0.498-1.216-0.857c-0.458-0.458-0.797-0.996-0.976-1.594c-0.458-1.415-0.08-2.989,0.957-4.045
	c0.338-0.339,0.677-0.558,1.116-0.777c0.239-0.12,0.678-0.259,0.937-0.319c0.08,0,0.18-0.04,0.18-0.04
	c0.02-0.02-0.418-1.554-0.877-2.969L9.525,17.238z M11.479,4.046c-0.02,0-0.438,0.299-0.638,0.458
	c-0.259,0.199-0.738,0.677-0.937,0.937C9.087,6.457,8.628,7.553,8.449,8.869c-0.04,0.398-0.04,1.156,0.02,1.554
	c0.12,0.817,0.478,2.232,0.837,3.348l0.06,0.219l0.1-0.119c0.06-0.08,0.2-0.279,0.339-0.479c1.515-2.112,2.212-3.747,2.431-5.62
	c0.04-0.339,0.04-1.455,0-1.793c-0.06-0.319-0.159-0.718-0.259-0.997c-0.1-0.219-0.418-0.857-0.458-0.917
	C11.498,4.066,11.479,4.046,11.479,4.046z M12.136,22.998l-0.06-0.02l0.04,0.1c0.179,0.697,0.518,2.391,0.677,3.388
	c0.179,1.056,0.359,2.551,0.418,3.328c0,0.12,0.02,0.239,0.02,0.259c0.02,0.02,0.438-0.179,0.658-0.338
	c0.598-0.399,1.116-1.096,1.355-1.794c0.04-0.08,0.08-0.279,0.12-0.438c0.04-0.219,0.04-0.299,0.04-0.658
	c0-0.299,0-0.458-0.02-0.598c-0.279-1.594-1.415-2.83-2.949-3.168C12.295,23.018,12.176,22.998,12.136,22.998z"/>
<rect x="234.665" y="14.712" width="0.249" height="16.101"/>
<rect x="234.665" y="14.712" fill="none" stroke="#000000" stroke-width="0.3985" stroke-linejoin="round" stroke-miterlimit="10" width="0.249" height="16.101"/>
<path d="M64.321,23.336c0.797,0.179,1.335,0.618,1.514,1.275c0.06,0.219,0.06,0.677,0.02,0.937
	c-0.179,0.817-0.737,1.614-1.534,2.212c-0.678,0.499-1.455,0.837-2.212,0.977c-0.299,0.04-0.896,0.04-1.136,0
	c-0.837-0.179-1.395-0.618-1.574-1.315c-0.06-0.199-0.06-0.657-0.02-0.917c0.179-0.817,0.737-1.614,1.554-2.212
	c0.718-0.558,1.555-0.897,2.372-0.997C63.544,23.276,64.102,23.296,64.321,23.336z"/>
<rect x="65.447" y="11.281" width="0.249" height="13.61"/>
<rect x="65.447" y="11.281" fill="none" stroke="#000000" stroke-width="0.3985" stroke-linejoin="round" stroke-miterlimit="10" width="0.249" height="13.61"/>
<path d="M409.651,23.296c0.319,0.02,0.398,0.02,0.578,0.06c0.279,0.08,0.458,0.179,0.618,0.338c0.159,0.16,0.259,0.339,0.338,0.558
	c0.061,0.239,0.061,0.698,0,1.017c-0.199,0.917-0.558,1.674-1.036,2.172c-0.638,0.638-1.813,1.096-3.108,1.236
	c-1.315,0.159-1.913,0.06-2.312-0.319c-0.159-0.16-0.259-0.339-0.339-0.558c-0.06-0.239-0.06-0.698,0-1.017
	c0.199-0.917,0.558-1.674,1.036-2.152c0.259-0.259,0.498-0.438,0.957-0.658c0.717-0.359,1.494-0.558,2.57-0.658
	C409.134,23.316,409.412,23.296,409.651,23.296z M408.854,24.232c-0.419,0.219-1.076,0.618-2.093,1.295
	c-1.056,0.678-1.534,1.096-1.693,1.395c-0.12,0.259-0.14,0.518-0.021,0.777c0.199,0.378,0.638,0.538,1.116,0.378
	c0.479-0.179,1.256-0.618,2.65-1.554c1.057-0.678,1.534-1.096,1.694-1.395c0.119-0.259,0.139-0.518,0.02-0.777
	c-0.119-0.219-0.279-0.339-0.538-0.418C409.711,23.874,409.452,23.934,408.854,24.232z"/>
<path d="M255.879,23.336c0.797,0.179,1.335,0.618,1.514,1.275c0.061,0.219,0.061,0.677,0.021,0.937
	c-0.18,0.817-0.737,1.614-1.534,2.212c-0.678,0.499-1.455,0.837-2.213,0.977c-0.299,0.04-0.896,0.04-1.136,0
	c-0.837-0.179-1.395-0.618-1.574-1.315c-0.06-0.199-0.06-0.657-0.02-0.917c0.179-0.817,0.737-1.614,1.554-2.212
	c0.718-0.558,1.555-0.897,2.372-0.997C255.102,23.276,255.659,23.296,255.879,23.336z"/>
<path d="M136.07,2.02c1.216,0.199,2.272,0.737,3.229,1.674c1.096,1.116,1.933,2.65,2.411,4.444c0.14,0.518,0.239,1.096,0.239,1.176
	c-0.04,0.199-0.299,0.318-0.518,0.219c-0.159-0.06-0.199-0.139-0.259-0.478c-0.399-1.774-1.335-3.188-2.75-4.125
	c-0.299-0.2-0.837-0.479-1.136-0.578c-1.255-0.478-2.65-0.478-3.906,0c-0.299,0.1-0.837,0.378-1.136,0.578
	c-1.415,0.937-2.351,2.351-2.75,4.125c-0.06,0.339-0.1,0.418-0.259,0.478c-0.16,0.08-0.359,0.02-0.458-0.08
	c-0.08-0.1-0.08-0.179,0-0.578c0.339-1.575,0.977-3.089,1.793-4.225c1.176-1.614,2.611-2.491,4.344-2.65
	C135.094,1.98,135.871,2,136.07,2.02z M136.628,7.979c0.16,0.717-0.279,1.415-0.977,1.574c-0.737,0.179-1.475-0.279-1.614-1.016
	c-0.16-0.718,0.279-1.395,0.976-1.574C135.752,6.783,136.489,7.241,136.628,7.979z"/>
<rect x="380.848" y="19.692" width="0.249" height="16.101"/>
<rect x="380.849" y="19.692" fill="none" stroke="#000000" stroke-width="0.3985" stroke-linejoin="round" stroke-miterlimit="10" width="0.249" height="16.101"/>
<path d="M383.968,13.155h2.67l0.08,0.06c0.119,0.1,0.199,0.199,0.199,0.359c0,0.139-0.08,0.239-0.199,0.338l-0.08,0.04h-2.71h-2.71
	l-0.08-0.04c-0.159-0.119-0.239-0.299-0.18-0.478c0.04-0.08,0.18-0.239,0.26-0.259C381.258,13.174,382.294,13.155,383.968,13.155z"
	/>
<path d="M313.445,15.864c0.797,0.18,1.335,0.618,1.515,1.275c0.06,0.219,0.06,0.678,0.02,0.937
	c-0.179,0.817-0.737,1.614-1.534,2.212c-0.678,0.498-1.455,0.837-2.212,0.977c-0.299,0.04-0.896,0.04-1.136,0
	c-0.837-0.18-1.396-0.618-1.574-1.315c-0.061-0.199-0.061-0.658-0.021-0.917c0.18-0.817,0.737-1.614,1.555-2.212
	c0.717-0.558,1.555-0.896,2.371-0.996C312.668,15.804,313.226,15.824,313.445,15.864z"/>
<rect x="175.192" y="6.301" width="0.25" height="11.119"/>
<rect x="175.193" y="6.301" fill="none" stroke="#000000" stroke-width="0.3985" stroke-linejoin="round" stroke-miterlimit="10" width="0.249" height="11.119"/>
<path d="M326.406,8.172h2.671l0.079,0.06c0.12,0.1,0.199,0.199,0.199,0.359c0,0.139-0.079,0.239-0.199,0.338l-0.079,0.04h-2.711
	h-2.71l-0.079-0.04c-0.16-0.12-0.239-0.299-0.18-0.478c0.04-0.08,0.18-0.239,0.259-0.259C323.696,8.192,324.732,8.172,326.406,8.172
	z"/>
<rect x="285.747" y="15.079" width="0.249" height="15.734"/>
<rect x="285.747" y="15.079" fill="none" stroke="#000000" stroke-width="0.3985" stroke-linejoin="round" stroke-miterlimit="10" width="0.249" height="15.734"/>
<path d="M142.532,12.497c0.359,0.139,0.558,0.338,0.698,0.697c0.04,0.12,0.04,0.16,0.04,0.359c0,0.219,0,0.259-0.04,0.378
	c-0.14,0.359-0.359,0.578-0.718,0.698c-0.179,0.06-0.518,0.06-0.697,0c-0.359-0.12-0.578-0.339-0.717-0.698
	c-0.04-0.1-0.04-0.159-0.04-0.358c0-0.2,0-0.259,0.04-0.359c0.04-0.159,0.159-0.339,0.239-0.438c0.14-0.14,0.399-0.279,0.618-0.319
	C142.093,12.417,142.392,12.457,142.532,12.497z"/>
<path d="M174.068,15.864c0.797,0.18,1.335,0.618,1.514,1.275c0.06,0.219,0.06,0.678,0.02,0.937
	c-0.179,0.817-0.737,1.614-1.534,2.212c-0.678,0.498-1.455,0.837-2.212,0.977c-0.299,0.04-0.896,0.04-1.136,0
	c-0.837-0.18-1.395-0.618-1.574-1.315c-0.06-0.199-0.06-0.658-0.02-0.917c0.179-0.817,0.737-1.614,1.554-2.212
	c0.718-0.558,1.555-0.896,2.372-0.996C173.291,15.804,173.849,15.824,174.068,15.864z"/>
<rect x="49.445" y="11.281" width="0.249" height="13.61"/>
<rect x="49.445" y="11.281" fill="none" stroke="#000000" stroke-width="0.3985" stroke-linejoin="round" stroke-miterlimit="10" width="0.249" height="13.61"/>
<path d="M81.033,15.824c0.319,0.02,0.399,0.02,0.578,0.06c0.279,0.08,0.458,0.179,0.618,0.339c0.16,0.159,0.259,0.339,0.339,0.558
	c0.06,0.239,0.06,0.697,0,1.016c-0.199,0.917-0.558,1.674-1.036,2.172c-0.638,0.638-1.813,1.096-3.109,1.235
	c-1.315,0.159-1.913,0.06-2.312-0.319c-0.16-0.16-0.259-0.339-0.339-0.558c-0.06-0.239-0.06-0.697,0-1.016
	c0.199-0.917,0.558-1.674,1.036-2.152c0.259-0.259,0.498-0.438,0.957-0.658c0.717-0.358,1.495-0.558,2.571-0.658
	C80.515,15.844,80.794,15.824,81.033,15.824z M80.236,16.761c-0.418,0.219-1.076,0.618-2.092,1.295
	c-1.057,0.677-1.535,1.096-1.694,1.395c-0.119,0.259-0.139,0.519-0.02,0.777c0.199,0.379,0.638,0.538,1.116,0.379
	c0.479-0.18,1.255-0.618,2.65-1.555c1.056-0.677,1.535-1.096,1.694-1.395c0.12-0.259,0.14-0.518,0.02-0.777
	c-0.12-0.219-0.279-0.339-0.538-0.418C81.093,16.402,80.833,16.462,80.236,16.761z"/>
<path d="M157.778,33.08h2.67l0.08,0.06c0.119,0.1,0.199,0.2,0.199,0.359c0,0.14-0.08,0.239-0.199,0.339l-0.08,0.04h-2.71h-2.71
	l-0.08-0.04c-0.159-0.12-0.239-0.299-0.179-0.479c0.04-0.08,0.179-0.239,0.259-0.259C155.068,33.1,156.104,33.08,157.778,33.08z"/>
<rect x="49.445" y="10.088" fill="none" stroke="#000000" stroke-width="0.3985" stroke-linejoin="round" stroke-miterlimit="10" width="16.25" height="1.993"/>
<rect x="49.445" y="10.088" width="16.25" height="1.993"/>
<rect x="59.195" y="14.12" fill="none" stroke="#000000" stroke-width="0.3985" stroke-linejoin="round" stroke-miterlimit="10" width="6.5" height="1.993"/>
<rect x="59.195" y="14.12" width="6.5" height="1.993"/>
<path d="M172.403,23.117h2.67l0.08,0.06c0.12,0.1,0.199,0.199,0.199,0.359c0,0.14-0.08,0.239-0.199,0.339l-0.08,0.04h-2.71h-2.71
	l-0.08-0.04c-0.159-0.12-0.239-0.299-0.179-0.479c0.04-0.08,0.179-0.239,0.259-0.259C169.693,23.137,170.729,23.117,172.403,23.117z
	"/>
<rect x="323.287" y="14.708" width="0.249" height="17.047"/>
<rect x="323.287" y="14.708" fill="none" stroke="#000000" stroke-width="0.3985" stroke-linejoin="round" stroke-miterlimit="10" width="0.249" height="17.047"/>
<rect x="271.629" y="6.301" width="0.249" height="11.119"/>
<rect x="271.629" y="6.301" fill="none" stroke="#000000" stroke-width="0.3985" stroke-linejoin="round" stroke-miterlimit="10" width="0.249" height="11.119"/>
<path d="M385.632,15.864c0.797,0.179,1.335,0.618,1.515,1.275c0.06,0.219,0.06,0.678,0.02,0.937
	c-0.179,0.817-0.737,1.614-1.534,2.212c-0.678,0.498-1.455,0.837-2.212,0.976c-0.299,0.04-0.897,0.04-1.136,0
	c-0.837-0.179-1.396-0.618-1.574-1.315c-0.061-0.199-0.061-0.658-0.021-0.917c0.18-0.817,0.737-1.614,1.555-2.212
	c0.717-0.558,1.554-0.897,2.371-0.997C384.854,15.804,385.412,15.824,385.632,15.864z"/>
<path d="M290.869,10.843c0.319,0.02,0.399,0.02,0.578,0.06c0.279,0.08,0.459,0.179,0.618,0.338c0.159,0.16,0.259,0.339,0.339,0.558
	c0.06,0.239,0.06,0.697,0,1.017c-0.199,0.917-0.559,1.674-1.036,2.172c-0.638,0.638-1.813,1.096-3.109,1.236
	c-1.315,0.159-1.913,0.06-2.312-0.319c-0.159-0.16-0.259-0.339-0.339-0.558c-0.06-0.239-0.06-0.698,0-1.017
	c0.199-0.917,0.559-1.674,1.036-2.152c0.26-0.259,0.499-0.438,0.957-0.658c0.717-0.359,1.494-0.558,2.57-0.658
	C290.352,10.863,290.631,10.843,290.869,10.843z M290.072,11.779c-0.418,0.219-1.076,0.618-2.092,1.295
	c-1.057,0.678-1.535,1.096-1.694,1.395c-0.119,0.259-0.14,0.518-0.02,0.777c0.199,0.378,0.638,0.538,1.115,0.378
	c0.479-0.179,1.256-0.618,2.65-1.554c1.057-0.678,1.535-1.096,1.694-1.395c0.119-0.259,0.14-0.518,0.02-0.777
	c-0.119-0.219-0.278-0.339-0.538-0.418C290.93,11.421,290.67,11.48,290.072,11.779z M368.876,10.883
	c0.797,0.179,1.335,0.618,1.515,1.275c0.06,0.219,0.06,0.677,0.02,0.937c-0.179,0.817-0.737,1.614-1.534,2.212
	c-0.678,0.498-1.455,0.837-2.212,0.977c-0.299,0.04-0.897,0.04-1.136,0c-0.837-0.179-1.396-0.618-1.574-1.315
	c-0.061-0.199-0.061-0.658-0.021-0.917c0.18-0.817,0.737-1.614,1.555-2.212c0.717-0.558,1.554-0.897,2.371-0.997
	C368.099,10.823,368.656,10.843,368.876,10.883z"/>
<path d="M268.839,23.117h2.671l0.079,0.06c0.12,0.1,0.2,0.199,0.2,0.359c0,0.14-0.08,0.239-0.2,0.339l-0.079,0.04h-2.71h-2.711
	l-0.079-0.04c-0.16-0.12-0.239-0.299-0.18-0.479c0.04-0.08,0.18-0.239,0.259-0.259C266.129,23.137,267.165,23.117,268.839,23.117z"
	/>
<rect x="441.586" y="11.281" width="0.249" height="13.61"/>
<rect x="441.587" y="11.281" fill="none" stroke="#000000" stroke-width="0.3985" stroke-linejoin="round" stroke-miterlimit="10" width="0.248" height="13.61"/>
<path d="M53.63,22.459c0.358,0.14,0.558,0.339,0.697,0.698c0.04,0.119,0.04,0.159,0.04,0.358c0,0.219,0,0.259-0.04,0.379
	c-0.14,0.358-0.359,0.578-0.717,0.697c-0.18,0.06-0.518,0.06-0.698,0c-0.358-0.12-0.578-0.339-0.717-0.697
	c-0.04-0.1-0.04-0.16-0.04-0.359s0-0.259,0.04-0.359c0.04-0.159,0.16-0.338,0.239-0.438c0.139-0.139,0.398-0.279,0.618-0.318
	C53.191,22.379,53.49,22.419,53.63,22.459z"/>
<path d="M41.199,37.811c0.139,0.02,0.199,0.02,0.299,0.08c0.219,0.1,0.378,0.299,0.478,0.618l0.04,0.159l0.179-0.159
	c0.479-0.479,1.056-0.738,1.495-0.698c0.359,0.04,0.658,0.319,0.797,0.777l0.02,0.12l0.139-0.16
	c0.518-0.538,1.196-0.837,1.674-0.697c0.558,0.139,0.996,0.797,0.957,1.415c-0.02,0.08-0.18,0.837-0.379,1.694
	c-0.219,0.857-0.378,1.594-0.378,1.614c0,0.08,0.06,0.14,0.139,0.14c0.16,0,0.479-0.199,0.837-0.498
	c0.239-0.219,0.319-0.259,0.438-0.239c0.14,0.04,0.199,0.179,0.12,0.339c-0.04,0.08-0.418,0.438-0.757,0.717
	c-0.737,0.598-1.475,0.917-2.013,0.877c-0.239-0.02-0.418-0.14-0.518-0.339c-0.04-0.1-0.04-0.14-0.04-0.299
	c0-0.18,0.02-0.319,0.398-1.894c0.438-1.833,0.458-1.933,0.378-2.092c-0.04-0.12-0.12-0.159-0.279-0.159
	c-0.219,0.04-0.518,0.239-0.658,0.478c-0.04,0.06-0.239,0.757-0.598,1.933c-0.279,1.036-0.538,1.893-0.538,1.913
	c-0.04,0.1-0.14,0.199-0.239,0.259l-0.08,0.04l-0.499,0.02c-0.558,0-0.598,0-0.677-0.12c-0.02-0.04-0.04-0.1-0.04-0.14
	c0-0.02,0.239-0.917,0.558-1.953c0.378-1.375,0.538-1.933,0.558-2.053c0.02-0.358-0.18-0.478-0.558-0.299
	c-0.16,0.08-0.378,0.279-0.458,0.458c-0.04,0.08-0.339,0.937-0.677,1.933c-0.339,0.997-0.638,1.854-0.658,1.894
	c-0.06,0.1-0.18,0.199-0.299,0.239c-0.12,0.06-0.997,0.06-1.076,0c-0.08-0.02-0.14-0.139-0.14-0.219c0-0.02,0.299-0.896,0.658-1.953
	c0.697-2.093,0.697-2.093,0.618-2.272c-0.04-0.12-0.12-0.159-0.279-0.159c-0.399,0.04-0.817,0.578-1.196,1.514
	c-0.14,0.359-0.179,0.438-0.339,0.499c-0.14,0.08-0.259,0.08-0.339,0.02c-0.139-0.1-0.12-0.219,0.12-0.777
	c0.598-1.395,1.535-2.352,2.491-2.551C40.96,37.831,41.1,37.811,41.199,37.811z"/>
<path d="M54.769,34.344c0.339,0.02,0.578,0.08,0.877,0.219c0.518,0.259,0.797,0.677,0.797,1.195c0,0.18-0.04,0.479-0.1,0.658
	c-0.1,0.339-0.319,0.658-0.538,0.757c-0.458,0.239-1.036,0.02-1.215-0.458c-0.06-0.159-0.06-0.458,0-0.578
	c0.04-0.08,0.139-0.16,0.299-0.279c0.279-0.159,0.378-0.299,0.398-0.478c0.02-0.219-0.06-0.259-0.418-0.279
	c-0.538-0.02-0.837,0.139-1.096,0.538c-0.259,0.399-0.418,0.857-0.677,2.013c-0.04,0.239-0.08,0.438-0.1,0.458
	c0,0.02,0.1,0.02,0.578,0.02c0.479,0,0.598,0,0.658,0.04c0.199,0.08,0.279,0.279,0.199,0.498c-0.02,0.12-0.08,0.179-0.179,0.219
	c-0.08,0.04-0.16,0.04-0.797,0.04h-0.697l-0.518,1.713c-0.638,2.113-0.737,2.372-1.156,3.188c-0.896,1.774-1.993,2.97-3.029,3.308
	c-0.518,0.16-1.056,0.12-1.535-0.12c-0.538-0.259-0.817-0.677-0.817-1.195c0-0.18,0.04-0.479,0.1-0.678
	c0.1-0.319,0.319-0.638,0.538-0.737c0.458-0.239,1.036-0.02,1.216,0.458c0.06,0.159,0.06,0.458,0,0.578
	c-0.04,0.08-0.14,0.16-0.299,0.279c-0.279,0.159-0.378,0.299-0.398,0.478c-0.02,0.219,0.06,0.259,0.418,0.279
	c0.279,0,0.418-0.02,0.598-0.1c0.319-0.159,0.558-0.498,0.757-1.116c0.04-0.14,0.438-1.614,0.857-3.288l0.757-3.049h-0.518
	c-0.478,0-0.538,0-0.598-0.04c-0.12-0.04-0.179-0.1-0.199-0.219c-0.08-0.219,0-0.418,0.199-0.498c0.06-0.04,0.179-0.04,0.697-0.04
	h0.638l0.04-0.159c0.219-0.598,0.618-1.295,1.056-1.854c0.219-0.259,0.618-0.678,0.877-0.877c0.618-0.498,1.255-0.777,1.913-0.877
	C54.43,34.363,54.609,34.344,54.769,34.344z"/>
<path d="M48.319,23.335c0.797,0.18,1.335,0.618,1.515,1.275c0.06,0.219,0.06,0.678,0.02,0.937c-0.179,0.817-0.737,1.614-1.535,2.212
	c-0.677,0.498-1.455,0.837-2.212,0.976c-0.299,0.04-0.896,0.04-1.136,0c-0.837-0.179-1.395-0.618-1.574-1.315
	c-0.06-0.199-0.06-0.658-0.02-0.917c0.179-0.817,0.737-1.614,1.554-2.212c0.718-0.558,1.555-0.896,2.372-0.996
	C47.542,23.276,48.101,23.296,48.319,23.335z"/>
<path d="M296.209,12.497c0.358,0.139,0.558,0.338,0.697,0.697c0.04,0.12,0.04,0.159,0.04,0.358c0,0.22,0,0.259-0.04,0.379
	c-0.14,0.359-0.358,0.578-0.718,0.697c-0.179,0.06-0.518,0.06-0.697,0c-0.358-0.119-0.578-0.338-0.718-0.697
	c-0.039-0.1-0.039-0.159-0.039-0.359c0-0.199,0-0.259,0.039-0.358c0.04-0.16,0.16-0.339,0.239-0.438
	c0.14-0.14,0.398-0.279,0.618-0.319C295.771,12.417,296.069,12.457,296.209,12.497z"/>
<path d="M289.748,2.02c1.216,0.199,2.271,0.737,3.229,1.674c1.096,1.116,1.933,2.65,2.411,4.444c0.14,0.518,0.239,1.096,0.239,1.176
	c-0.04,0.199-0.299,0.319-0.519,0.219c-0.159-0.06-0.199-0.14-0.259-0.479c-0.398-1.773-1.335-3.188-2.75-4.125
	c-0.299-0.199-0.837-0.478-1.136-0.578c-1.256-0.479-2.65-0.479-3.906,0c-0.299,0.1-0.837,0.378-1.136,0.578
	c-1.415,0.937-2.352,2.352-2.75,4.125c-0.06,0.339-0.1,0.419-0.26,0.479c-0.159,0.08-0.358,0.02-0.458-0.08
	c-0.08-0.1-0.08-0.18,0-0.578c0.339-1.574,0.977-3.089,1.794-4.225c1.176-1.614,2.61-2.491,4.344-2.65
	C288.771,1.98,289.549,2,289.748,2.02z M290.306,7.978c0.159,0.718-0.279,1.415-0.977,1.575c-0.737,0.179-1.475-0.279-1.614-1.017
	c-0.159-0.717,0.279-1.395,0.977-1.574C289.429,6.783,290.166,7.241,290.306,7.978z"/>
<polygon fill="none" stroke="#000000" stroke-width="0.3985" stroke-linejoin="round" stroke-miterlimit="10" points="257.004,9.23 
	257.004,11.223 271.878,7.011 271.878,5.019 "/>
<polyline points="257.004,9.23 257.004,11.223 271.878,7.011 271.878,5.019 "/>
</svg>
